<?xml version="1.0" standalone="no"?>
<!DOCTYPE svg PUBLIC "-//W3C//DTD SVG 20010904//EN"
 "http://www.w3.org/TR/2001/REC-SVG-20010904/DTD/svg10.dtd">
<svg version="1.0" xmlns="http://www.w3.org/2000/svg"
 width="2560.000000pt" height="2560.000000pt" viewBox="0 0 2560.000000 2560.000000"
 preserveAspectRatio="xMidYMid meet">
<metadata>
Created by potrace 1.11, written by Peter Selinger 2001-2013
</metadata>
<g transform="translate(0.000000,2560.000000) scale(0.100000,-0.100000)"
fill="#000000" stroke="none">
<path d="M3420 25566 c-14 -19 -93 -123 -176 -232 -1856 -2443 -2972 -5383
-3198 -8424 -31 -414 -37 -565 -43 -1045 -8 -735 20 -1315 98 -2010 457 -4066
2481 -7817 5644 -10461 1955 -1634 4290 -2785 6760 -3333 325 -72 273 -70 495
-22 1762 383 3434 1055 4970 1999 2680 1647 4839 4072 6155 6918 1232 2662
1704 5593 1374 8539 -315 2812 -1394 5521 -3103 7784 -105 139 -202 268 -216
287 -14 18 -32 34 -40 34 -8 0 -60 -14 -115 -31 -620 -187 -1417 -366 -2110
-473 -2284 -352 -4641 -204 -6847 429 -145 42 -272 74 -283 72 -11 -2 -107
-30 -213 -61 -1405 -410 -2928 -625 -4432 -626 -1504 0 -2978 205 -4410 615
-144 41 -267 75 -274 75 -6 0 -22 -16 -36 -34z m9589 -71 c1343 -388 2682
-592 4096 -624 1637 -37 3201 163 4779 611 248 71 249 71 265 51 836 -1058
1590 -2328 2124 -3578 692 -1620 1101 -3293 1236 -5050 60 -777 62 -1613 6
-2395 -233 -3223 -1433 -6280 -3462 -8810 -390 -486 -681 -810 -1172 -1301
-491 -491 -815 -782 -1301 -1172 -1930 -1547 -4177 -2620 -6576 -3141 l-201
-43 -204 43 c-1016 217 -2075 563 -3084 1009 -269 118 -892 426 -1150 568
-1210 664 -2332 1479 -3310 2403 -226 214 -673 668 -858 872 -1601 1764 -2773
3821 -3462 6077 -631 2067 -834 4259 -594 6435 155 1412 508 2821 1037 4145
527 1321 1244 2585 2105 3718 84 109 159 208 168 220 l17 20 213 -61 c1354
-389 2677 -590 4089 -621 1639 -37 3233 168 4790 615 123 36 226 67 229 70 3
2 12 2 20 -1 8 -3 98 -30 200 -60z"/>
<path d="M12640 24999 c-176 -52 -668 -178 -890 -228 -2579 -584 -5321 -542
-7861 120 -107 27 -218 57 -247 65 -29 9 -59 13 -66 11 -17 -7 -243 -323 -413
-577 -794 -1189 -1413 -2455 -1864 -3812 -55 -164 -99 -302 -99 -308 0 -7
3615 -10 11600 -10 6380 0 11600 3 11600 7 0 15 -97 312 -172 528 -390 1120
-914 2210 -1551 3225 -132 210 -410 623 -545 810 -81 113 -102 135 -122 134
-14 0 -128 -28 -255 -62 -2115 -559 -4404 -688 -6600 -371 -731 105 -1527 275
-2177 463 -87 25 -168 46 -180 45 -13 0 -84 -18 -158 -40z m1155 -1529 c112
-35 183 -78 271 -165 120 -120 195 -281 205 -445 l4 -55 -182 -3 -181 -2 -7
42 c-16 103 -84 196 -174 240 -37 19 -63 23 -131 23 -73 0 -93 -4 -142 -28
-61 -30 -105 -74 -140 -140 -19 -35 -23 -58 -23 -132 0 -146 33 -187 267 -332
186 -114 296 -195 398 -290 194 -182 287 -357 310 -579 41 -398 -197 -752
-570 -845 -172 -43 -385 -12 -535 79 -207 125 -351 377 -372 653 l-6 79 192 0
191 0 0 -48 c0 -108 61 -253 133 -318 95 -86 236 -111 359 -64 164 62 271 260
240 446 -28 169 -129 277 -466 501 -276 184 -380 281 -444 414 -96 200 -95
414 3 615 94 193 281 336 488 374 80 14 232 4 312 -20z m-8775 -1350 l0 -1330
-190 0 -190 0 0 1330 0 1330 190 0 190 0 0 -1330z m987 1288 c11 -24 172 -376
358 -783 186 -407 341 -744 346 -749 5 -6 9 329 9 782 l0 792 190 0 190 0 0
-1330 0 -1330 -147 0 -148 0 -405 880 -405 880 -3 -880 -2 -880 -195 0 -195 0
0 1330 0 1330 193 0 193 0 21 -42z m2813 -138 l0 -180 -240 0 -240 0 0 -1150
0 -1150 -195 0 -195 0 0 1150 0 1150 -240 0 -240 0 0 180 0 180 675 0 675 0 0
-180z m1618 -7 l-3 -188 -432 -3 -433 -2 0 -330 0 -330 275 0 275 0 0 -185 0
-185 -275 0 -275 0 0 -440 0 -440 485 0 485 0 0 -185 0 -185 -680 0 -680 0 0
1323 c0 728 3 1327 7 1330 3 4 287 7 630 7 l623 0 -2 -187z m1547 163 c172
-51 331 -175 404 -316 66 -126 84 -209 84 -380 -1 -168 -18 -251 -79 -371 -48
-95 -145 -194 -231 -235 -56 -26 -62 -32 -57 -54 2 -14 87 -306 187 -650 l183
-625 -195 -3 c-106 -1 -196 -1 -198 2 -3 3 -305 1064 -342 1204 l-12 42 -179
0 -180 0 0 -625 0 -625 -195 0 -195 0 0 1331 0 1330 473 -4 c414 -3 479 -6
532 -21z m3883 -153 l-3 -178 -242 -3 -243 -2 0 -1150 0 -1150 -190 0 -190 0
0 1150 0 1150 -242 2 -243 3 -3 178 -2 177 680 0 680 0 -2 -177z m1523 -1148
c181 -725 329 -1323 329 -1327 0 -4 -85 -8 -189 -8 l-189 0 -14 48 c-8 26 -50
188 -93 359 l-80 313 -286 0 -285 0 -85 -357 -86 -358 -195 -3 -195 -2 331
1330 331 1330 189 -2 188 -3 329 -1320z m1849 1145 l0 -180 -245 0 -245 0 0
-1150 0 -1150 -190 0 -190 0 0 1150 0 1150 -242 2 -243 3 -3 178 -2 177 680 0
680 0 0 -180z m1610 -10 l0 -190 -435 0 -435 0 0 -330 0 -330 278 -2 277 -3 3
-182 2 -183 -277 -2 -278 -3 -3 -437 -2 -438 490 0 490 0 0 -185 0 -185 -680
0 -680 0 0 1330 0 1330 625 0 625 0 0 -190z"/>
<path d="M11370 22740 l0 -330 238 0 c267 0 310 7 384 63 93 71 132 229 93
374 -16 57 -27 76 -74 124 -90 91 -121 99 -406 99 l-235 0 0 -330z"/>
<path d="M16785 22317 c-43 -177 -84 -346 -91 -374 l-12 -53 188 0 188 0 -95
373 c-52 204 -96 373 -97 374 -1 1 -38 -143 -81 -320z"/>
<path d="M1061 19683 c-232 -870 -400 -1894 -466 -2833 -27 -390 -35 -640 -35
-1115 0 -608 18 -999 70 -1535 376 -3853 2185 -7427 5075 -10026 1729 -1555
3809 -2711 6029 -3350 401 -116 1002 -264 1069 -264 34 0 369 77 637 146 3519
909 6609 3040 8734 6023 1650 2315 2634 5060 2831 7891 47 681 49 1495 5 2160
-65 971 -229 1983 -471 2903 l-10 37 -11729 0 -11729 0 -10 -37z m7329 -2058
c370 -50 686 -146 1025 -310 327 -159 580 -337 838 -593 257 -253 438 -496
615 -822 319 -590 405 -1315 233 -1966 -106 -399 -357 -845 -670 -1186 -34
-36 -61 -68 -61 -71 0 -2 42 -40 93 -83 384 -325 627 -625 821 -1015 207 -414
300 -795 313 -1274 18 -684 -141 -1280 -505 -1885 -452 -753 -1195 -1350
-2020 -1626 -381 -127 -761 -182 -1187 -171 -482 12 -880 101 -1312 292 -1051
464 -1850 1398 -2123 2483 -103 412 -125 889 -60 1317 77 504 271 943 606
1375 89 114 390 427 513 532 l65 55 -75 84 c-366 412 -589 890 -676 1449 -26
165 -26 636 0 800 63 404 188 743 402 1095 182 299 464 621 735 838 407 327
929 567 1430 656 100 17 173 27 355 45 91 9 536 -4 645 -19z m9650 0 c698 -87
1231 -332 1700 -782 328 -314 674 -817 858 -1248 510 -1194 738 -2784 617
-4295 -94 -1156 -385 -2246 -800 -2987 -572 -1025 -1349 -1551 -2470 -1675
-186 -20 -760 -17 -950 6 -486 58 -880 175 -1215 361 -636 352 -1137 985
-1501 1896 -270 677 -479 1617 -555 2499 -21 249 -30 960 -15 1246 40 751 147
1409 336 2053 231 793 577 1497 934 1903 555 632 1267 964 2226 1037 175 14
684 5 835 -14z"/>
<path d="M7726 15914 c-301 -41 -562 -155 -794 -349 -322 -268 -471 -607 -440
-996 9 -113 30 -191 85 -309 144 -309 490 -578 889 -690 170 -48 295 -63 514
-63 231 0 385 22 572 83 373 123 684 373 824 665 72 148 87 222 87 415 0 145
-3 177 -26 261 -59 223 -148 374 -325 550 -256 252 -549 392 -922 438 -113 15
-342 12 -464 -5z"/>
<path d="M7675 11764 c-141 -20 -345 -72 -466 -120 -762 -300 -1191 -907
-1131 -1601 21 -238 66 -409 161 -608 101 -211 195 -347 351 -509 373 -386
849 -587 1393 -586 712 1 1334 349 1685 943 119 202 195 415 228 639 24 168
16 438 -19 568 -167 636 -754 1124 -1517 1262 -156 28 -524 34 -685 12z"/>
<path d="M17215 15923 c-171 -22 -349 -75 -487 -144 -417 -210 -701 -605 -973
-1355 -153 -421 -252 -929 -312 -1599 -25 -283 -25 -1141 0 -1423 34 -385 100
-817 168 -1107 147 -623 375 -1114 668 -1438 277 -306 580 -459 1000 -508 152
-17 447 -7 584 20 326 65 589 216 799 456 449 514 764 1493 873 2720 34 374
29 956 -10 1395 -104 1138 -413 2037 -863 2511 -253 266 -551 410 -960 464
-103 14 -406 19 -487 8z"/>
</g>
</svg>
